<svg width="24" height="24" viewBox="0 0 24 24" fill="none" xmlns="http://www.w3.org/2000/svg">
<path d="M23 12.0667C22.9998 9.95163 22.3972 7.88091 21.2637 6.09969C20.1301 4.31847 18.5131 2.90135 16.604 2.01609C14.6949 1.13084 12.5737 0.814518 10.4914 1.10458C8.40922 1.39465 6.45319 2.27895 4.85494 3.6528C3.25669 5.02666 2.08313 6.83252 1.47321 8.85661C0.86329 10.8807 0.842539 13.0383 1.41342 15.0738C1.98431 17.1094 3.12292 18.9378 4.69445 20.3425C6.26599 21.7472 8.20463 22.6694 10.2809 23V15.2657H7.48811V12.0667H10.2809V9.62866C10.2809 6.8543 11.9238 5.32261 14.4364 5.32261C15.2612 5.33415 16.0841 5.4063 16.8984 5.53849V8.262H15.5118C14.1447 8.262 13.7191 9.11572 13.7191 9.99084V12.0667H16.7699L16.2823 15.2657H13.7191V23C16.3064 22.5877 18.6626 21.2601 20.3639 19.2559C22.0652 17.2517 22.9999 14.7024 23 12.0667Z" fill="#4E4E4E"/>
</svg>
