<svg width="24" height="24" viewBox="0 0 24 24" fill="none" xmlns="http://www.w3.org/2000/svg">
<path d="M20.6602 2.00313C20.7368 2.0219 20.8166 2.04379 20.89 2.06099C21.1936 2.12817 21.4667 2.2933 21.6672 2.53096C21.8678 2.76863 21.9847 3.06564 22 3.3763C22 3.45762 22 3.53269 22 3.62028C22 9.22138 22 14.8214 22 20.4205C22 20.8584 21.9125 21.2478 21.592 21.5637C21.4572 21.7033 21.2953 21.8139 21.1163 21.8887C20.9372 21.9634 20.7448 22.0008 20.5508 21.9985H3.48246C3.13585 22.0144 2.79544 21.9027 2.52555 21.6845C2.25565 21.4664 2.07497 21.1569 2.01763 20.8146C2.00405 20.7345 1.99829 20.6533 2.00044 20.5722V3.45293C2.00137 3.10607 2.12903 2.77151 2.35938 2.51225C2.58973 2.253 2.90687 2.08695 3.25109 2.04536C3.3044 2.03472 3.3567 2.01955 3.40743 2L20.6602 2.00313ZM12.6373 10.7489C12.6373 10.3954 12.6373 10.0419 12.6373 9.68693C12.6373 9.54304 12.6091 9.47579 12.4419 9.47735C11.6081 9.48569 10.7707 9.48569 9.9296 9.47735C9.77326 9.47735 9.73418 9.53835 9.73418 9.68536C9.73418 12.7507 9.73418 15.8161 9.73418 18.8815C9.73418 19.0536 9.78421 19.1067 9.95773 19.1052C10.8019 19.0958 11.6456 19.0958 12.4888 19.1052C12.6732 19.1052 12.7311 19.0645 12.7295 18.869C12.7217 17.3207 12.7295 15.7723 12.7295 14.224C12.7295 13.9753 12.7436 13.7267 12.7655 13.478C12.8311 12.7414 13.286 12.1533 13.9458 12C14.2202 11.9435 14.5014 11.9266 14.7806 11.95C15.007 11.9578 15.227 12.0279 15.4162 12.1526C15.6054 12.2773 15.7565 12.4518 15.853 12.6569C16.0139 12.996 16.0911 13.3688 16.0781 13.7439C16.0781 15.4361 16.0781 17.1283 16.0781 18.8205C16.0781 19.1005 16.0781 19.1005 16.3673 19.1005H18.8218C19.0625 19.1005 19.0641 19.1005 19.0641 18.8518C19.0641 16.8843 19.0641 14.9184 19.0641 12.9509C19.0662 12.6084 19.0401 12.2663 18.9859 11.9281C18.8296 11.0695 18.4669 10.3125 17.7102 9.83237C16.494 9.06134 15.223 9.09262 13.9489 9.69787C13.4441 9.95428 12.9976 10.3121 12.6373 10.7489ZM7.92385 14.296C7.92385 12.7601 7.92385 11.2243 7.92385 9.68849C7.92385 9.53209 7.88478 9.47579 7.7175 9.47735C6.8608 9.48674 6.00462 9.48674 5.14896 9.47735C4.96761 9.47735 4.93166 9.53991 4.93166 9.70257C4.93166 12.7617 4.93166 15.8208 4.93166 18.88C4.93166 19.0489 4.977 19.1067 5.15365 19.1052C5.9968 19.0958 6.83995 19.0958 7.6831 19.1052C7.8707 19.1052 7.92698 19.0582 7.92542 18.8659C7.92073 17.3426 7.92385 15.8193 7.92385 14.296ZM6.44652 4.72288C6.21859 4.72059 5.99248 4.76367 5.78134 4.84959C5.5702 4.93552 5.37823 5.06258 5.21662 5.22339C5.055 5.38419 4.92696 5.57554 4.83993 5.7863C4.7529 5.99706 4.70862 6.22303 4.70966 6.45107C4.70965 6.91169 4.89148 7.35368 5.21559 7.68085C5.5397 8.00803 5.97985 8.1939 6.44026 8.19802C6.89731 8.19041 7.33358 8.00571 7.65724 7.68279C7.9809 7.35987 8.16671 6.92392 8.17555 6.4667C8.17679 6.23854 8.13301 6.01238 8.04673 5.80116C7.96045 5.58995 7.83336 5.39785 7.67274 5.23586C7.51212 5.07387 7.32113 4.94517 7.11071 4.85714C6.9003 4.76912 6.67459 4.72349 6.44652 4.72288Z" fill="#4E4E4E"/>
</svg>
