<svg width="24" height="24" viewBox="0 0 24 24" fill="none" xmlns="http://www.w3.org/2000/svg">
<path fill-rule="evenodd" clip-rule="evenodd" d="M12 23C18.0751 23 23 18.0751 23 12C23 5.92487 18.0751 1 12 1C5.92487 1 1 5.92487 1 12C1 18.0751 5.92487 23 12 23ZM18.7073 8.56173C18.6283 8.25971 18.4723 7.98405 18.2551 7.76238C18.0378 7.54071 17.767 7.3808 17.4696 7.29868C16.3777 7 12.0007 7 12.0007 7C12.0007 7 7.62228 7 6.53045 7.29868C6.23305 7.3808 5.96215 7.54071 5.74491 7.76238C5.52767 7.98405 5.37171 8.25971 5.29265 8.56173C5 9.67556 5 12.0001 5 12.0001C5 12.0001 5 14.3244 5.29265 15.4385C5.37176 15.7405 5.52773 16.0161 5.74497 16.2378C5.9622 16.4595 6.23307 16.6194 6.53045 16.7016C7.62105 17 12.0007 17 12.0007 17C12.0007 17 16.3789 17 17.4708 16.7016C17.7679 16.6193 18.0385 16.4593 18.2554 16.2378C18.4725 16.0162 18.6283 15.7408 18.7073 15.439C19 14.3249 19 12.0006 19 12.0006C19 12.0006 19 9.67556 18.7073 8.56173ZM10.5674 14.1104V9.8896L14.2269 12.0001L10.5674 14.1104Z" fill="#4E4E4E"/>
</svg>
